<?xml version="1.0" encoding="UTF-8" standalone="no"?>
<!-- Created with Inkscape (http://www.inkscape.org/) -->

<svg
   xmlns:a="http://ns.adobe.com/AdobeSVGViewerExtensions/3.0/"
   xmlns:dc="http://purl.org/dc/elements/1.1/"
   xmlns:cc="http://creativecommons.org/ns#"
   xmlns:rdf="http://www.w3.org/1999/02/22-rdf-syntax-ns#"
   xmlns:svg="http://www.w3.org/2000/svg"
   xmlns="http://www.w3.org/2000/svg"
   xmlns:sodipodi="http://sodipodi.sourceforge.net/DTD/sodipodi-0.dtd"
   xmlns:inkscape="http://www.inkscape.org/namespaces/inkscape"
   width="210mm"
   height="297mm"
   viewBox="0 0 210 297"
   version="1.1"
   id="svg1264"
   inkscape:version="0.92.2 5c3e80d, 2017-08-06"
   sodipodi:docname="geometry.svg"
   inkscape:export-filename="/home/marco/Documenti/Innsbruck/Corsi/Advance laboratory 2/Exp 9/report/img/geometry.png"
   inkscape:export-xdpi="318.10001"
   inkscape:export-ydpi="318.10001">
  <defs
     id="defs1258">
    <marker
       inkscape:stockid="Arrow2Lstart"
       orient="auto"
       refY="0"
       refX="0"
       id="Arrow2Lstart-0"
       style="overflow:visible"
       inkscape:isstock="true">
      <path
         inkscape:connector-curvature="0"
         id="path1341-3"
         style="fill:#fa0000;fill-opacity:1;fill-rule:evenodd;stroke:#fa0000;stroke-width:0.625;stroke-linejoin:round;stroke-opacity:1"
         d="M 8.7185878,4.0337352 -2.2072895,0.01601326 8.7185884,-4.0017078 c -1.7454984,2.3720609 -1.7354408,5.6174519 -6e-7,8.035443 z"
         transform="matrix(1.1,0,0,1.1,1.1,0)" />
    </marker>
    <marker
       inkscape:stockid="Arrow2Lend"
       orient="auto"
       refY="0"
       refX="0"
       id="Arrow2Lend-6"
       style="overflow:visible"
       inkscape:isstock="true">
      <path
         inkscape:connector-curvature="0"
         id="path1344-1"
         style="fill:#fa0000;fill-opacity:1;fill-rule:evenodd;stroke:#fa0000;stroke-width:0.625;stroke-linejoin:round;stroke-opacity:1"
         d="M 8.7185878,4.0337352 -2.2072895,0.01601326 8.7185884,-4.0017078 c -1.7454984,2.3720609 -1.7354408,5.6174519 -6e-7,8.035443 z"
         transform="matrix(-1.1,0,0,-1.1,-1.1,0)" />
    </marker>
    <marker
       inkscape:stockid="Arrow2Lstart"
       orient="auto"
       refY="0"
       refX="0"
       id="Arrow2Lstart-7-8"
       style="overflow:visible"
       inkscape:isstock="true">
      <path
         inkscape:connector-curvature="0"
         id="path1341-5-4"
         style="fill:#fa0000;fill-opacity:1;fill-rule:evenodd;stroke:#fa0000;stroke-width:0.625;stroke-linejoin:round;stroke-opacity:1"
         d="M 8.7185878,4.0337352 -2.2072895,0.01601326 8.7185884,-4.0017078 c -1.7454984,2.3720609 -1.7354408,5.6174519 -6e-7,8.035443 z"
         transform="matrix(1.1,0,0,1.1,1.1,0)" />
    </marker>
    <linearGradient
       id="linearGradient6486"
       gradientUnits="userSpaceOnUse"
       x1="350.0874"
       y1="43.0298"
       x2="350.0874"
       y2="14.6831"
       gradientTransform="matrix(0.35,0,0,1,-117.1952,-14.3086)">
      <stop
         offset="0.0056"
         style="stop-color:#89A4B6"
         id="stop6480" />
      <stop
         offset="1"
         style="stop-color:#FFFFFF"
         id="stop6482" />
      <stop
         offset="1"
         style="stop-color:#89A4B6"
         id="stop6484" />
      <a:midPointStop
         offset="0.0056"
         style="stop-color:#89A4B6" />
      <a:midPointStop
         offset="0.5"
         style="stop-color:#89A4B6" />
      <a:midPointStop
         offset="0.5"
         style="stop-color:#FFFFFF" />
      <a:midPointStop
         offset="0.5"
         style="stop-color:#FFFFFF" />
      <a:midPointStop
         offset="1"
         style="stop-color:#89A4B6" />
    </linearGradient>
    <linearGradient
       y2="-5.9816999"
       x2="26.5749"
       y1="18.8008"
       x1="1.7925"
       gradientUnits="userSpaceOnUse"
       id="linearGradient3407">
      <stop
         id="stop3394"
         style="stop-color:#FFFFFF"
         offset="0" />
      <stop
         id="stop3396"
         style="stop-color:#89A4B6"
         offset="1" />
      <a:midPointStop
         style="stop-color:#FFFFFF"
         offset="0" />
      <a:midPointStop
         style="stop-color:#FFFFFF"
         offset="0.5" />
      <a:midPointStop
         style="stop-color:#89A4B6"
         offset="1" />
    </linearGradient>
    <marker
       inkscape:stockid="Arrow2Lstart"
       orient="auto"
       refY="0"
       refX="0"
       id="Arrow2Lstart-7"
       style="overflow:visible"
       inkscape:isstock="true">
      <path
         inkscape:connector-curvature="0"
         id="path1341-5"
         style="fill:#fa0000;fill-opacity:1;fill-rule:evenodd;stroke:#fa0000;stroke-width:0.625;stroke-linejoin:round;stroke-opacity:1"
         d="M 8.7185878,4.0337352 -2.2072895,0.01601326 8.7185884,-4.0017078 c -1.7454984,2.3720609 -1.7354408,5.6174519 -6e-7,8.035443 z"
         transform="matrix(1.1,0,0,1.1,1.1,0)" />
    </marker>
    <marker
       inkscape:stockid="Arrow2Lstart"
       orient="auto"
       refY="0"
       refX="0"
       id="Arrow2Lstart"
       style="overflow:visible"
       inkscape:isstock="true">
      <path
         inkscape:connector-curvature="0"
         id="path1341"
         style="fill:#fa0000;fill-opacity:1;fill-rule:evenodd;stroke:#fa0000;stroke-width:0.625;stroke-linejoin:round;stroke-opacity:1"
         d="M 8.7185878,4.0337352 -2.2072895,0.01601326 8.7185884,-4.0017078 c -1.7454984,2.3720609 -1.7354408,5.6174519 -6e-7,8.035443 z"
         transform="matrix(1.1,0,0,1.1,1.1,0)" />
    </marker>
    <marker
       inkscape:stockid="Arrow2Lend"
       orient="auto"
       refY="0"
       refX="0"
       id="Arrow2Lend"
       style="overflow:visible"
       inkscape:isstock="true">
      <path
         inkscape:connector-curvature="0"
         id="path1344"
         style="fill:#fa0000;fill-opacity:1;fill-rule:evenodd;stroke:#fa0000;stroke-width:0.625;stroke-linejoin:round;stroke-opacity:1"
         d="M 8.7185878,4.0337352 -2.2072895,0.01601326 8.7185884,-4.0017078 c -1.7454984,2.3720609 -1.7354408,5.6174519 -6e-7,8.035443 z"
         transform="matrix(-1.1,0,0,-1.1,-1.1,0)" />
    </marker>
    <linearGradient
       id="linearGradient3665"
       gradientUnits="userSpaceOnUse"
       x1="339.73239"
       y1="43.0312"
       x2="339.73239"
       y2="14.6846"
       gradientTransform="matrix(0.35,0,0,1,-113.5716,-14.3096)">
      <stop
         offset="0.0056"
         style="stop-color:#89A4B6"
         id="stop3647" />
      <stop
         offset="0.5"
         style="stop-color:#FFFFFF"
         id="stop3649" />
      <stop
         offset="1"
         style="stop-color:#89A4B6"
         id="stop3651" />
      <a:midPointStop
         offset="0.0056"
         style="stop-color:#89A4B6" />
      <a:midPointStop
         offset="0.5"
         style="stop-color:#89A4B6" />
      <a:midPointStop
         offset="0.5"
         style="stop-color:#FFFFFF" />
      <a:midPointStop
         offset="0.5"
         style="stop-color:#FFFFFF" />
      <a:midPointStop
         offset="1"
         style="stop-color:#89A4B6" />
    </linearGradient>
    <radialGradient
       gradientUnits="userSpaceOnUse"
       fy="7.4608998"
       fx="8.8794003"
       r="17.067101"
       cy="7.4608998"
       cx="8.8794003"
       id="radialGradient5264-2">
      <stop
         id="stop5248-2"
         style="stop-color:#FEDE58"
         offset="0" />
      <stop
         id="stop5250-8"
         style="stop-color:#BA0000"
         offset="0.6854" />
      <a:midPointStop
         style="stop-color:#FEDE58"
         offset="0" />
      <a:midPointStop
         style="stop-color:#FEDE58"
         offset="0.5" />
      <a:midPointStop
         style="stop-color:#BA0000"
         offset="0.6854" />
    </radialGradient>
    <linearGradient
       y2="13.1309"
       x2="28.721701"
       y1="32.972698"
       x1="28.721701"
       gradientUnits="userSpaceOnUse"
       id="linearGradient5726">
      <stop
         id="stop5690"
         style="stop-color:#FFFFFF"
         offset="0" />
      <stop
         id="stop5692"
         style="stop-color:#FEFCFC"
         offset="0.0051" />
      <stop
         id="stop5694"
         style="stop-color:#E6A4A4"
         offset="0.1497" />
      <stop
         id="stop5696"
         style="stop-color:#D35E5E"
         offset="0.277" />
      <stop
         id="stop5698"
         style="stop-color:#C62B2B"
         offset="0.3823" />
      <stop
         id="stop5700"
         style="stop-color:#BD0C0C"
         offset="0.4615" />
      <stop
         id="stop5702"
         style="stop-color:#BA0000"
         offset="0.5056" />
      <stop
         id="stop5704"
         style="stop-color:#D86E6E"
         offset="0.7077" />
      <stop
         id="stop5706"
         style="stop-color:#F4D6D6"
         offset="0.9099" />
      <stop
         id="stop5708"
         style="stop-color:#FFFFFF"
         offset="1" />
      <a:midPointStop
         style="stop-color:#FFFFFF"
         offset="0" />
      <a:midPointStop
         style="stop-color:#FFFFFF"
         offset="0.4222" />
      <a:midPointStop
         style="stop-color:#BA0000"
         offset="0.5056" />
      <a:midPointStop
         style="stop-color:#BA0000"
         offset="0.4773" />
      <a:midPointStop
         style="stop-color:#FFFFFF"
         offset="1" />
    </linearGradient>
  </defs>
  <sodipodi:namedview
     id="base"
     pagecolor="#ffffff"
     bordercolor="#666666"
     borderopacity="1.0"
     inkscape:pageopacity="0.0"
     inkscape:pageshadow="2"
     inkscape:zoom="1.979899"
     inkscape:cx="267.90549"
     inkscape:cy="540.08599"
     inkscape:document-units="mm"
     inkscape:current-layer="layer1"
     showgrid="false"
     inkscape:window-width="1366"
     inkscape:window-height="697"
     inkscape:window-x="0"
     inkscape:window-y="0"
     inkscape:window-maximized="1" />
  <metadata
     id="metadata1261">
    <rdf:RDF>
      <cc:Work
         rdf:about="">
        <dc:format>image/svg+xml</dc:format>
        <dc:type
           rdf:resource="http://purl.org/dc/dcmitype/StillImage" />
        <dc:title />
      </cc:Work>
    </rdf:RDF>
  </metadata>
  <g
     inkscape:label="Livello 1"
     inkscape:groupmode="layer"
     id="layer1">
    <path
       style="fill:none;stroke:#000000;stroke-width:0.26499999;stroke-linecap:round;stroke-linejoin:miter;stroke-miterlimit:4;stroke-dasharray:none;stroke-opacity:1"
       d="m 52.629203,160.70245 19.281022,-0.12235 23.757779,0.0781 -2.423472,-42.80093"
       id="path516"
       inkscape:connector-curvature="0"
       sodipodi:nodetypes="cccc" />
    <path
       style="fill:none;stroke:#000000;stroke-width:0.37964261;stroke-linecap:butt;stroke-linejoin:miter;stroke-miterlimit:4;stroke-dasharray:1.13892779, 0.3796426;stroke-dashoffset:0;stroke-opacity:0.33073928"
       d="M 95.36618,160.59038 68.916641,128.96974"
       id="path1919"
       inkscape:connector-curvature="0"
       sodipodi:nodetypes="cc" />
    <text
       xml:space="preserve"
       style="font-style:normal;font-weight:normal;font-size:3.52777767px;line-height:1.25;font-family:sans-serif;letter-spacing:0px;word-spacing:0px;fill:#000000;fill-opacity:1;stroke:none;stroke-width:0.26458332"
       x="95.530174"
       y="140.98766"
       id="text17336"><tspan
         sodipodi:role="line"
         id="tspan17334"
         x="95.530174"
         y="140.98766"
         style="font-size:2.11666656px;stroke-width:0.26458332">0th</tspan></text>
    <text
       xml:space="preserve"
       style="font-style:normal;font-weight:normal;font-size:3.52777767px;line-height:1.25;font-family:sans-serif;letter-spacing:0px;word-spacing:0px;fill:#000000;fill-opacity:1;stroke:none;stroke-width:0.26458332"
       x="60.493237"
       y="141.23853"
       id="text17340"><tspan
         sodipodi:role="line"
         id="tspan17338"
         x="60.493237"
         y="141.23853"
         style="stroke-width:0.26458332"><tspan
           style="font-size:2.11666656px;stroke-width:0.26458332"
           id="tspan17346">1st</tspan></tspan></text>
    <path
       style="fill:none;stroke:#000000;stroke-width:0.245;stroke-linecap:butt;stroke-linejoin:miter;stroke-miterlimit:4;stroke-dasharray:none;stroke-opacity:1"
       d="M 95.359117,160.56531 51.182439,130.01768"
       id="path159"
       inkscape:connector-curvature="0" />
    <path
       style="fill:none;stroke:#030000;stroke-width:0.26499999;stroke-linecap:butt;stroke-linejoin:miter;stroke-miterlimit:4;stroke-dasharray:none;stroke-opacity:1"
       d="M 95.384849,160.61165 47.548568,188.10246 H 121.58223"
       id="path2677"
       inkscape:connector-curvature="0"
       sodipodi:nodetypes="ccc" />
    <path
       style="fill:none;stroke:#000000;stroke-width:0.76499999;stroke-linecap:butt;stroke-linejoin:miter;stroke-miterlimit:4;stroke-dasharray:none;stroke-opacity:1"
       d="m 121.71587,174.73899 c 0,25.3906 0,25.3906 0,25.3906"
       id="path2679"
       inkscape:connector-curvature="0" />
    <text
       xml:space="preserve"
       style="font-style:normal;font-weight:normal;font-size:3.52777767px;line-height:1.25;font-family:sans-serif;letter-spacing:0px;word-spacing:0px;fill:#000000;fill-opacity:1;stroke:none;stroke-width:0.26458332"
       x="124.52219"
       y="188.50336"
       id="text2683"><tspan
         sodipodi:role="line"
         x="124.52219"
         y="188.50336"
         style="stroke-width:0.26458332"
         id="tspan2685">Wall</tspan></text>
    <text
       xml:space="preserve"
       style="font-style:normal;font-weight:normal;font-size:3.52777767px;line-height:1.25;font-family:sans-serif;letter-spacing:0px;word-spacing:0px;fill:#000000;fill-opacity:1;stroke:none;stroke-width:0.26458332"
       x="71.407944"
       y="176.56461"
       id="text17340-6"><tspan
         sodipodi:role="line"
         id="tspan17338-3"
         x="71.407944"
         y="176.56461"
         style="stroke-width:0.26458332"><tspan
           style="font-size:2.11666656px;stroke-width:0.26458332"
           id="tspan17346-2">2nd</tspan></tspan></text>
    <text
       xml:space="preserve"
       style="font-style:normal;font-weight:normal;font-size:2.11666656px;line-height:1.25;font-family:sans-serif;letter-spacing:0px;word-spacing:0px;fill:#000000;fill-opacity:1;stroke:none;stroke-width:0.26458332"
       x="-55.446182"
       y="183.30594"
       id="text976"
       transform="rotate(-46.989384)"><tspan
         sodipodi:role="line"
         id="tspan974"
         x="-55.446182"
         y="183.30594"
         style="font-size:2.11666656px;stroke-width:0.26458332">grating</tspan></text>
    <ellipse
       style="fill:#000000;fill-opacity:1;stroke:#000000;stroke-width:0.76499999;stroke-miterlimit:4;stroke-dasharray:none;stroke-dashoffset:0;stroke-opacity:1;paint-order:normal"
       id="path2199"
       cx="95.796295"
       cy="160.86655"
       rx="0.49314079"
       ry="0.4399879" />
    <ellipse
       style="fill:#000000;fill-opacity:1;stroke:#000000;stroke-width:0.76499999;stroke-miterlimit:4;stroke-dasharray:none;stroke-dashoffset:0;stroke-opacity:1;paint-order:normal"
       id="path2199-3"
       cx="93.182564"
       cy="117.32609"
       rx="0.49314082"
       ry="0.43998793" />
    <ellipse
       style="fill:#000000;fill-opacity:1;stroke:#000000;stroke-width:0.76499999;stroke-miterlimit:4;stroke-dasharray:none;stroke-dashoffset:0;stroke-opacity:1;paint-order:normal"
       id="path2199-6"
       cx="50.914845"
       cy="129.82291"
       rx="0.49314082"
       ry="0.43998793" />
    <ellipse
       style="fill:#000000;fill-opacity:1;stroke:#000000;stroke-width:0.76499999;stroke-miterlimit:4;stroke-dasharray:none;stroke-dashoffset:0;stroke-opacity:1;paint-order:normal"
       id="path2199-7"
       cx="52.385246"
       cy="160.75105"
       rx="0.49314082"
       ry="0.43998793" />
    <ellipse
       style="fill:#000000;fill-opacity:1;stroke:#000000;stroke-width:0.76499999;stroke-miterlimit:4;stroke-dasharray:none;stroke-dashoffset:0;stroke-opacity:1;paint-order:normal"
       id="path2199-5"
       cx="46.838982"
       cy="188.2213"
       rx="0.49314082"
       ry="0.43998793" />
    <text
       xml:space="preserve"
       style="font-style:normal;font-weight:normal;font-size:2.82222222px;line-height:1.25;font-family:sans-serif;letter-spacing:0px;word-spacing:0px;fill:#000000;fill-opacity:1;stroke:none;stroke-width:0.26458332;"
       x="40.758602"
       y="190.894"
       id="text2236"><tspan
         sodipodi:role="line"
         id="tspan2234"
         x="40.758602"
         y="190.894"
         style="stroke-width:0.26458332;font-size:2.82222222px;">mirror</tspan></text>
    <text
       xml:space="preserve"
       style="font-style:normal;font-weight:normal;font-size:2.82222223px;line-height:1.25;font-family:sans-serif;letter-spacing:0px;word-spacing:0px;fill:#000000;fill-opacity:1;stroke:none;stroke-width:0.26458332"
       x="1.5910908"
       y="137.27606"
       id="text2236-3"
       transform="rotate(-18.48251)"><tspan
         sodipodi:role="line"
         id="tspan2234-5"
         x="1.5910908"
         y="137.27606"
         style="font-size:2.82222223px;stroke-width:0.26458332">mirror</tspan></text>
    <text
       xml:space="preserve"
       style="font-style:normal;font-weight:normal;font-size:2.82222223px;line-height:1.25;font-family:sans-serif;letter-spacing:0px;word-spacing:0px;fill:#000000;fill-opacity:1;stroke:none;stroke-width:0.26458332"
       x="88.430611"
       y="115.23978"
       id="text2236-6"><tspan
         sodipodi:role="line"
         id="tspan2234-2"
         x="88.430611"
         y="115.23978"
         style="font-size:2.82222223px;stroke-width:0.26458332">mirror</tspan></text>
    <text
       xml:space="preserve"
       style="font-style:normal;font-weight:normal;font-size:2.82222223px;line-height:1.25;font-family:sans-serif;letter-spacing:0px;word-spacing:0px;fill:#000000;fill-opacity:1;stroke:none;stroke-width:0.26458332"
       x="44.306816"
       y="161.65689"
       id="text2236-9"><tspan
         sodipodi:role="line"
         id="tspan2234-1"
         x="44.306816"
         y="161.65689"
         style="font-size:2.82222223px;stroke-width:0.26458332">laser</tspan></text>
    <path
       style="fill:none;stroke:#000000;stroke-width:0.26499999;stroke-linecap:butt;stroke-linejoin:miter;stroke-miterlimit:4;stroke-dasharray:none;stroke-opacity:1"
       d="M 52.629203,160.70245 51.182439,130.01768 93.244531,117.85727"
       id="path2272"
       inkscape:connector-curvature="0"
       sodipodi:nodetypes="ccc" />
    <path
       inkscape:connector-curvature="0"
       style="display:inline;stroke-width:0.16038042;enable-background:new"
       d="m 89.446078,157.83184 h 0.268497 l -0.210261,0.69272 c -0.01427,0.0437 -0.03616,0.11227 -0.06623,0.20552 0.04087,0.15612 0.07177,0.24971 0.09214,0.28009 0.03893,0.0558 0.08771,0.0836 0.147065,0.0836 0.04309,0 0.08313,-0.0165 0.119714,-0.0502 0.03672,-0.0335 0.06096,-0.0857 0.07288,-0.15693 h 0.06457 c -0.01524,0.14625 -0.0478,0.24738 -0.09796,0.30298 -0.05016,0.0557 -0.108214,0.0836 -0.173848,0.0836 -0.06152,0 -0.117359,-0.0244 -0.167225,-0.073 -0.04988,-0.0485 -0.09519,-0.15336 -0.134956,-0.31362 -0.04752,0.0883 -0.0938,0.15547 -0.139084,0.20088 -0.06346,0.0629 -0.132461,0.10985 -0.206963,0.14075 -0.07454,0.0309 -0.159216,0.0468 -0.253865,0.0468 -0.238139,0 -0.413373,-0.0746 -0.525397,-0.22372 -0.111954,-0.14916 -0.168319,-0.31932 -0.168319,-0.51032 0,-0.22321 0.06568,-0.4043 0.197306,-0.5428 0.131629,-0.13848 0.285608,-0.20785 0.462477,-0.20785 0.122762,0 0.231253,0.0354 0.32507,0.1058 0.0938,0.0704 0.178808,0.20188 0.255251,0.39391 z m -0.195643,0.6288 c -0.05819,-0.20916 -0.133015,-0.35494 -0.224616,-0.43782 -0.09159,-0.0828 -0.184891,-0.12392 -0.279817,-0.12392 -0.105719,0 -0.193426,0.0545 -0.263522,0.16368 -0.07011,0.1092 -0.105165,0.28271 -0.105165,0.52122 0,0.14107 0.0151,0.25206 0.04517,0.33261 0.03007,0.0806 0.07565,0.14317 0.136618,0.18732 0.06097,0.0442 0.125256,0.0663 0.193163,0.0663 0.08314,0 0.158953,-0.0361 0.227927,-0.10807 0.0938,-0.0974 0.184074,-0.29775 0.27016,-0.60124 z"
       id="path3863" />
    <path
       inkscape:connector-curvature="0"
       style="display:inline;stroke-width:0.1663551;enable-background:new"
       d="m 93.451146,153.25497 h 0.288874 l -0.226234,0.69272 c -0.01535,0.0437 -0.03891,0.11227 -0.07126,0.20552 0.04398,0.15612 0.07722,0.24971 0.09913,0.28009 0.04189,0.0558 0.09436,0.0836 0.158241,0.0836 0.04636,0 0.08944,-0.0165 0.128799,-0.0502 0.0395,-0.0335 0.06559,-0.0857 0.07841,-0.15693 h 0.06947 c -0.01625,0.14625 -0.05143,0.24738 -0.105395,0.30298 -0.05396,0.0557 -0.116426,0.0836 -0.187057,0.0836 -0.06619,0 -0.126116,-0.0244 -0.179916,-0.073 -0.05367,-0.0485 -0.102414,-0.15336 -0.145198,-0.31362 -0.05113,0.0883 -0.100922,0.15547 -0.149639,0.20088 -0.06828,0.0629 -0.142515,0.10985 -0.222656,0.14075 -0.0802,0.0309 -0.1713,0.0468 -0.273147,0.0468 -0.256212,0 -0.44473,-0.0746 -0.565271,-0.22372 -0.120451,-0.14916 -0.181079,-0.31932 -0.181079,-0.51032 0,-0.22321 0.07066,-0.4043 0.21228,-0.5428 0.14162,-0.13848 0.30727,-0.20785 0.497577,-0.20785 0.132079,0 0.248788,0.0354 0.34974,0.1058 0.100923,0.0704 0.192379,0.20188 0.274608,0.39391 z m -0.210492,0.6288 c -0.06261,-0.20916 -0.14311,-0.35494 -0.241677,-0.43782 -0.09854,-0.0828 -0.198909,-0.12392 -0.301039,-0.12392 -0.113743,0 -0.208106,0.0545 -0.283522,0.16368 -0.07543,0.1092 -0.113147,0.28271 -0.113147,0.52122 0,0.14107 0.01625,0.25206 0.04875,0.33261 0.03235,0.0806 0.08139,0.14317 0.146986,0.18732 0.06559,0.0442 0.134762,0.0663 0.207823,0.0663 0.08944,0 0.171002,-0.0361 0.245226,-0.10807 0.100922,-0.0974 0.198029,-0.29775 0.290648,-0.60124 z"
       id="path3863-6" />
    <ellipse
       style="fill:#ffffff;fill-opacity:1;stroke:#000000;stroke-width:0.86500001;stroke-miterlimit:4;stroke-dasharray:none;stroke-dashoffset:0;stroke-opacity:0;paint-order:normal"
       id="path2370"
       cx="89.702332"
       cy="165.11919"
       rx="0.03340869"
       ry="0.083521724" />
    <path
       style="fill:none;fill-opacity:1;stroke:#ff0000;stroke-width:0.2;stroke-miterlimit:4;stroke-dasharray:none;stroke-dashoffset:0;stroke-opacity:1;paint-order:normal"
       id="path2382"
       sodipodi:type="arc"
       sodipodi:cx="95.659653"
       sodipodi:cy="160.4494"
       sodipodi:rx="5.4261885"
       sodipodi:ry="5.3047776"
       sodipodi:start="3.1098029"
       sodipodi:end="3.933766"
       d="m 90.236206,160.61801 a 5.4261885,5.3047776 0 0 1 1.612636,-3.94498"
       sodipodi:open="true" />
    <path
       style="fill:none;fill-opacity:1;stroke:#00e100;stroke-width:0.2;stroke-miterlimit:4;stroke-dasharray:none;stroke-dashoffset:0;stroke-opacity:1;paint-order:normal"
       id="path2386"
       sodipodi:type="arc"
       sodipodi:cx="95.668007"
       sodipodi:cy="160.6582"
       sodipodi:rx="8.6049557"
       sodipodi:ry="8.5851011"
       sodipodi:start="3.7516588"
       sodipodi:end="4.6594531"
       sodipodi:open="true"
       d="m 88.615298,155.73961 a 8.6049557,8.5851011 0 0 1 6.597411,-3.65448" />
    <path
       inkscape:connector-curvature="0"
       style="display:inline;stroke-width:0.19621408;enable-background:new"
       d="m 92.028839,150.24825 h 0.366911 c -0.0236,0.0404 -0.144299,0.23167 -0.362413,0.57384 -0.09069,0.14323 -0.15591,0.25168 -0.195265,0.32558 -0.01761,0.03 -0.03747,0.0633 -0.05921,0.099 l -0.252605,0.41262 c 0.01012,0.0715 0.01761,0.13742 0.02211,0.19787 0.0045,0.0604 0.0069,0.11521 0.0069,0.16435 0,0.15197 -0.01463,0.26947 -0.04385,0.3522 -0.0206,0.0581 -0.0476,0.0983 -0.08132,0.11993 -0.03374,0.0218 -0.07046,0.0327 -0.109815,0.0327 -0.04835,0 -0.09106,-0.0164 -0.128551,-0.0469 -0.03747,-0.0313 -0.05585,-0.0715 -0.05585,-0.12085 0,-0.0863 0.02285,-0.18529 0.06822,-0.29782 0.04536,-0.11247 0.112818,-0.23853 0.202014,-0.37827 -0.106812,-0.57269 -0.192265,-0.91832 -0.255977,-1.03687 -0.06372,-0.11848 -0.151784,-0.17781 -0.264596,-0.17781 -0.06895,0 -0.122934,0.0164 -0.162657,0.0479 -0.03973,0.0319 -0.06971,0.10374 -0.08994,0.21564 h -0.08582 c -0.0016,-0.0335 -0.0022,-0.0586 -0.0022,-0.0755 0,-0.15433 0.03935,-0.2706 0.118437,-0.34909 0.05997,-0.0581 0.140548,-0.0874 0.241735,-0.0874 0.0877,0 0.159659,0.02 0.215126,0.0604 0.07608,0.057 0.144299,0.18127 0.204258,0.37253 0.07608,0.24827 0.135305,0.51859 0.178021,0.81038 l 0.193389,-0.49825 c 0.08582,-0.22335 0.197135,-0.46218 0.333182,-0.71616 z"
       id="path3875" />
    <path
       style="fill:none;fill-opacity:1;stroke:#0000ef;stroke-width:0.2;stroke-miterlimit:4;stroke-dasharray:none;stroke-dashoffset:0;stroke-opacity:1;paint-order:normal"
       id="path2394"
       sodipodi:type="arc"
       sodipodi:cx="95.668007"
       sodipodi:cy="160.6582"
       sodipodi:rx="12.277007"
       sodipodi:ry="12.25009"
       sodipodi:start="3.751655"
       sodipodi:end="4.0066276"
       sodipodi:open="true"
       d="m 85.605621,153.6399 a 12.277007,12.25009 0 0 1 2.099353,-2.30546" />
    <path
       inkscape:connector-curvature="0"
       style="display:inline;stroke-width:0.13098007;enable-background:new"
       d="m 85.279559,151.88985 v 0.20521 c 0,0.13117 -0.018,0.27314 -0.05399,0.42631 h -0.228433 c 0.02423,-0.10016 0.03875,-0.16871 0.04339,-0.20518 0.01125,-0.1134 0.01731,-0.19657 0.01731,-0.24912 v -1.24103 c 0,-0.14484 0.01592,-0.25244 0.048,-0.32249 0.03207,-0.0702 0.08976,-0.1284 0.173054,-0.17553 0.0833,-0.0472 0.183209,-0.0704 0.299502,-0.0704 0.161286,0 0.290273,0.0388 0.386722,0.11661 0.09645,0.0777 0.144675,0.16991 0.144675,0.2769 0,0.0687 -0.01962,0.13408 -0.05884,0.19596 -0.03923,0.0618 -0.0999,0.11559 -0.181824,0.16089 0.241585,0.10365 0.362261,0.26465 0.362261,0.48332 0,0.0972 -0.02515,0.18775 -0.07567,0.27212 -0.05052,0.0843 -0.119985,0.14828 -0.208127,0.19256 -0.08814,0.0441 -0.179286,0.0661 -0.273198,0.0661 -0.06045,0 -0.12022,-0.0101 -0.179053,-0.0281 -0.05884,-0.018 -0.131056,-0.0536 -0.215744,-0.10439 z m 0,-0.0959 c 0.08745,0.0551 0.163595,0.0946 0.228433,0.11908 0.04869,0.018 0.09737,0.0266 0.146059,0.0266 0.09115,0 0.167517,-0.034 0.229123,-0.10132 0.0616,-0.0676 0.09253,-0.17472 0.09253,-0.32123 0,-0.0923 -0.01454,-0.17312 -0.04385,-0.24227 -0.0293,-0.0693 -0.08099,-0.14514 -0.154826,-0.22779 -0.0623,0.018 -0.11583,0.0281 -0.160826,0.0281 -0.05399,0 -0.09206,-0.005 -0.114222,-0.0217 -0.02215,-0.0146 -0.03324,-0.0302 -0.03324,-0.0474 0,-0.0146 0.0085,-0.0292 0.02562,-0.0414 0.01707,-0.0117 0.04454,-0.018 0.08238,-0.018 0.04406,0 0.110759,0.0102 0.200054,0.0314 0.06298,-0.11254 0.09459,-0.21907 0.09459,-0.31938 0,-0.10205 -0.02793,-0.18095 -0.08376,-0.23689 -0.05584,-0.056 -0.125289,-0.0837 -0.208126,-0.0837 -0.104527,0 -0.185748,0.0396 -0.243433,0.11909 -0.03761,0.0529 -0.05653,0.13742 -0.05653,0.25409 z"
       id="path3865" />
    <path
       style="fill:none;fill-opacity:1;stroke:#ff0000;stroke-width:0.2;stroke-miterlimit:4;stroke-dasharray:none;stroke-dashoffset:0;stroke-opacity:1;paint-order:normal"
       id="path2417"
       sodipodi:type="arc"
       sodipodi:cx="95.668007"
       sodipodi:cy="160.6582"
       sodipodi:rx="5.4645386"
       sodipodi:ry="5.5783195"
       sodipodi:start="4.0034493"
       sodipodi:end="4.6574015"
       sodipodi:open="true"
       d="m 92.110432,156.42397 a 5.4645386,5.5783195 0 0 1 3.257245,-1.33566" />
    <path
       style="fill:none;fill-opacity:1;stroke:#ff0000;stroke-width:0.2;stroke-miterlimit:4;stroke-dasharray:none;stroke-dashoffset:0;stroke-opacity:1;paint-order:normal"
       id="path2423"
       sodipodi:type="arc"
       sodipodi:cx="51.182438"
       sodipodi:cy="130.01767"
       sodipodi:rx="4.9107533"
       sodipodi:ry="4.8833513"
       sodipodi:start="0.63388562"
       sodipodi:end="1.4852696"
       d="m 55.13919,132.90998 a 4.9107533,4.8833513 0 0 1 -3.537263,1.97319"
       sodipodi:open="true" />
    <path
       style="fill:none;fill-opacity:1;stroke:#00c700;stroke-width:0.2;stroke-miterlimit:4;stroke-dasharray:none;stroke-dashoffset:0;stroke-opacity:1;paint-order:normal"
       id="path2425"
       sodipodi:type="arc"
       sodipodi:cx="51.182438"
       sodipodi:cy="130.01767"
       sodipodi:rx="4.9107533"
       sodipodi:ry="4.8833513"
       sodipodi:start="6.0261286"
       sodipodi:end="0.58213378"
       sodipodi:open="true"
       d="m 55.931836,128.77615 a 4.9107533,4.8833513 0 0 1 -0.647488,3.92642" />
    <path
       inkscape:connector-curvature="0"
       style="display:inline;stroke-width:0.19371729;enable-background:new"
       d="m 53.769391,135.83846 c 0,-0.41587 0.121179,-0.73631 0.363134,-0.96114 0.182725,-0.16852 0.402229,-0.25317 0.657736,-0.25317 0.248155,0 0.459916,0.0813 0.635287,0.24373 0.245052,0.22696 0.367389,0.53554 0.367389,0.92625 0,0.37155 -0.120401,0.66497 -0.360808,0.88033 -0.187372,0.16665 -0.408426,0.2502 -0.662386,0.2502 -0.137427,0 -0.263249,-0.0232 -0.376677,-0.0697 -0.113433,-0.0465 -0.214084,-0.11336 -0.301577,-0.20102 -0.08749,-0.0876 -0.154849,-0.1805 -0.201699,-0.27857 -0.08052,-0.1692 -0.120402,-0.34802 -0.120402,-0.53689 z m 1.585701,-0.11251 c -0.0017,-0.27561 -0.03948,-0.49664 -0.113433,-0.66336 -0.0573,-0.12779 -0.133943,-0.21914 -0.229182,-0.27399 -0.06969,-0.0401 -0.14983,-0.0602 -0.240411,-0.0602 -0.10298,0 -0.197438,0.0282 -0.283382,0.084 -0.08594,0.0558 -0.151762,0.14951 -0.196276,0.2802 -0.04452,0.13085 -0.07473,0.3421 -0.08982,0.63337 z m -1.152497,0.10454 c 0.0062,0.18778 0.02632,0.35665 0.06117,0.50662 0.02555,0.11405 0.07046,0.21319 0.133942,0.29777 0.03793,0.0507 0.09291,0.0937 0.1657,0.12915 0.07278,0.0355 0.150605,0.053 0.233828,0.053 0.09679,0 0.188535,-0.0316 0.275637,-0.095 0.08711,-0.0635 0.152917,-0.16512 0.197438,-0.30561 0.04452,-0.14051 0.07162,-0.33558 0.08052,-0.58578 z"
       id="path3895" />
    <path
       inkscape:connector-curvature="0"
       style="display:inline;stroke-width:0.15669146;enable-background:new"
       d="m 58.52538,130.2404 0.01701,0.49013 H 58.4847 c -0.01144,-0.13182 -0.04838,-0.22473 -0.110602,-0.27904 -0.06222,-0.0543 -0.170954,-0.0814 -0.325691,-0.0814 h -0.679294 v 1.62148 c 0,0.0864 0.01887,0.14784 0.0569,0.18404 0.03803,0.0363 0.101023,0.0542 0.1893,0.0542 h 0.08401 v 0.0558 h -0.942506 v -0.0558 h 0.0545 c 0.09146,0 0.156603,-0.0179 0.195413,-0.0542 0.03882,-0.0363 0.05849,-0.096 0.05849,-0.17941 v -1.46599 c 0,-0.0834 -0.01914,-0.1434 -0.05769,-0.17943 -0.03855,-0.036 -0.103962,-0.0542 -0.19621,-0.0542 h -0.0545 v -0.0558 h 1.768561 v 0 z"
       id="path3927" />
    <path
       inkscape:connector-curvature="0"
       style="display:inline;stroke-width:0.18287925;enable-background:new"
       d="m 84.131838,158.14861 v -1.16192 c 0,-0.18761 0.03387,-0.32102 0.101911,-0.40072 0.06804,-0.0798 0.162812,-0.11962 0.284625,-0.11962 0.176482,0 0.333351,0.0806 0.47091,0.24196 0.137561,0.16138 0.20619,0.36178 0.20619,0.60214 0,0.16073 -0.03745,0.31725 -0.112307,0.46973 -0.07487,0.15251 -0.172021,0.26547 -0.291458,0.33825 -0.119424,0.0727 -0.276309,0.11744 -0.470018,0.13351 v 0.76127 h -0.18985 v -0.76158 c -0.17767,-0.0152 -0.325923,-0.0606 -0.444765,-0.13423 -0.118838,-0.0736 -0.215993,-0.18565 -0.290865,-0.33637 -0.07487,-0.15055 -0.112306,-0.30658 -0.112306,-0.46691 0,-0.13628 0.02466,-0.26232 0.07398,-0.37876 0.04931,-0.11626 0.108156,-0.20839 0.176777,-0.27582 0.06862,-0.0673 0.139051,-0.1154 0.211536,-0.14432 0.07249,-0.0287 0.161625,-0.0451 0.267097,-0.0488 v 0.0699 c -0.104578,0.009 -0.196683,0.0713 -0.276901,0.18761 -0.08021,0.11626 -0.120022,0.30217 -0.120022,0.55695 0,0.18523 0.02733,0.34298 0.08171,0.47353 0.05437,0.13058 0.123001,0.22842 0.205297,0.29339 0.05377,0.0414 0.129843,0.075 0.228472,0.10078 z m 0.189851,-0.004 c 0.117354,-0.0132 0.211834,-0.0425 0.283733,-0.0862 0.09982,-0.06 0.175886,-0.14686 0.228177,-0.26012 0.05229,-0.11335 0.07843,-0.24853 0.07843,-0.40542 0,-0.22184 -0.05289,-0.40573 -0.158357,-0.55162 -0.07666,-0.10546 -0.164297,-0.15815 -0.262938,-0.15815 -0.0499,0 -0.09062,0.0229 -0.121817,0.0691 -0.0312,0.0461 -0.04724,0.14358 -0.04724,0.29309 z"
       id="path3881" />
    <path
       style="fill:none;fill-opacity:1;stroke:#d3db00;stroke-width:0.2;stroke-miterlimit:4;stroke-dasharray:none;stroke-dashoffset:0;stroke-opacity:1;paint-order:normal"
       id="path2453"
       sodipodi:type="arc"
       sodipodi:cx="95.668007"
       sodipodi:cy="160.6582"
       sodipodi:rx="10.339879"
       sodipodi:ry="10.02948"
       sodipodi:start="2.6377581"
       sodipodi:end="3.9933728"
       sodipodi:open="true"
       d="M 86.612985,165.50031 A 10.339879,10.02948 0 0 1 88.8577,153.11148" />
    <path
       style="fill:none;stroke:#000000;stroke-width:0.26458332px;stroke-linecap:butt;stroke-linejoin:miter;stroke-opacity:1"
       d="m 52.629203,160.70245 -5.080636,27.40001"
       id="path2455"
       inkscape:connector-curvature="0"
       sodipodi:nodetypes="cc" />
    <text
       xml:space="preserve"
       style="font-style:normal;font-weight:normal;font-size:3.52777767px;line-height:1.25;font-family:sans-serif;letter-spacing:0px;word-spacing:0px;fill:#000000;fill-opacity:1;stroke:none;stroke-width:0.26458332"
       x="49.043957"
       y="145.59181"
       id="text2459"><tspan
         sodipodi:role="line"
         id="tspan2457"
         x="49.043957"
         y="145.59181"
         style="stroke-width:0.26458332">a</tspan></text>
    <text
       xml:space="preserve"
       style="font-style:normal;font-weight:normal;font-size:3.52777767px;line-height:1.25;font-family:sans-serif;letter-spacing:0px;word-spacing:0px;fill:#000000;fill-opacity:1;stroke:none;stroke-width:0.26458332"
       x="68.632919"
       y="123.9849"
       id="text2463"><tspan
         sodipodi:role="line"
         id="tspan2461"
         x="68.632919"
         y="123.9849"
         style="stroke-width:0.26458332">d</tspan></text>
    <text
       xml:space="preserve"
       style="font-style:normal;font-weight:normal;font-size:3.52777767px;line-height:1.25;font-family:sans-serif;letter-spacing:0px;word-spacing:0px;fill:#000000;fill-opacity:1;stroke:none;stroke-width:0.26458332"
       x="68.955544"
       y="160.02437"
       id="text2467"><tspan
         sodipodi:role="line"
         id="tspan2465"
         x="68.955544"
         y="160.02437"
         style="stroke-width:0.26458332">b</tspan></text>
    <text
       xml:space="preserve"
       style="font-style:normal;font-weight:normal;font-size:3.52777767px;line-height:1.25;font-family:sans-serif;letter-spacing:0px;word-spacing:0px;fill:#000000;fill-opacity:1;stroke:none;stroke-width:0.26458332"
       x="70.90609"
       y="147.24684"
       id="text2471"><tspan
         sodipodi:role="line"
         id="tspan2469"
         x="70.90609"
         y="147.24684"
         style="stroke-width:0.26458332">c</tspan></text>
    <text
       xml:space="preserve"
       style="font-style:normal;font-weight:normal;font-size:3.52777767px;line-height:1.25;font-family:sans-serif;letter-spacing:0px;word-spacing:0px;fill:#000000;fill-opacity:1;stroke:none;stroke-width:0.26458332"
       x="95.310081"
       y="136.30779"
       id="text2475"><tspan
         sodipodi:role="line"
         id="tspan2473"
         x="95.310081"
         y="136.30779"
         style="stroke-width:0.26458332">e</tspan></text>
    <text
       xml:space="preserve"
       style="font-style:normal;font-weight:normal;font-size:3.52777767px;line-height:1.25;font-family:sans-serif;letter-spacing:0px;word-spacing:0px;fill:#000000;fill-opacity:1;stroke:none;stroke-width:0.26458332"
       x="66.015572"
       y="176.19417"
       id="text2479"><tspan
         sodipodi:role="line"
         id="tspan2477"
         x="66.015572"
         y="176.19417"
         style="stroke-width:0.26458332">f</tspan></text>
    <text
       xml:space="preserve"
       style="font-style:normal;font-weight:normal;font-size:3.52777767px;line-height:1.25;font-family:sans-serif;letter-spacing:0px;word-spacing:0px;fill:#000000;fill-opacity:1;stroke:none;stroke-width:0.26458332"
       x="47.306705"
       y="173.12056"
       id="text2483"><tspan
         sodipodi:role="line"
         id="tspan2481"
         x="47.306705"
         y="173.12056"
         style="stroke-width:0.26458332">g</tspan></text>
    <text
       xml:space="preserve"
       style="font-style:normal;font-weight:normal;font-size:3.52777767px;line-height:1.25;font-family:sans-serif;letter-spacing:0px;word-spacing:0px;fill:#000000;fill-opacity:1;stroke:none;stroke-width:0.26458332"
       x="80.698708"
       y="192.05086"
       id="text2487"><tspan
         sodipodi:role="line"
         id="tspan2485"
         x="80.698708"
         y="192.05086"
         style="stroke-width:0.26458332">h</tspan></text>
    <path
       style="fill:none;stroke:#000000;stroke-width:0.26458332;stroke-linecap:butt;stroke-linejoin:miter;stroke-opacity:0.4125874;stroke-miterlimit:4;stroke-dasharray:0.26458332, 0.52916662999999997;stroke-dashoffset:0"
       d="M 93.244531,117.85727 52.629202,160.70245"
       id="path2489"
       inkscape:connector-curvature="0" />
    <text
       xml:space="preserve"
       style="font-style:normal;font-weight:normal;font-size:3.52777767px;line-height:1.25;font-family:sans-serif;letter-spacing:0px;word-spacing:0px;fill:#000000;fill-opacity:1;stroke:none;stroke-width:0.26458332"
       x="80.241692"
       y="129.95436"
       id="text2493"><tspan
         sodipodi:role="line"
         id="tspan2491"
         x="80.241692"
         y="129.95436"
         style="stroke-width:0.26458332">j</tspan></text>
    <path
       style="fill:none;stroke:#84f5d2;stroke-width:0.26499999;stroke-miterlimit:4;stroke-dasharray:none;stroke-dashoffset:0;stroke-opacity:1;paint-order:normal"
       id="path953"
       sodipodi:type="arc"
       sodipodi:cx="95.668007"
       sodipodi:cy="160.6582"
       sodipodi:rx="7.4022431"
       sodipodi:ry="7.4022431"
       sodipodi:start="2.6612857"
       sodipodi:end="3.1273149"
       sodipodi:open="true"
       d="m 89.103304,164.07842 a 7.4022431,7.4022431 0 0 1 -0.836786,-3.31453" />
    <path
       inkscape:connector-curvature="0"
       style="display:inline;stroke-width:0.15622425;enable-background:new"
       d="m 87.146353,161.32046 v 0.0498 c -0.06358,0.009 -0.10727,0.0253 -0.131356,0.0476 -0.02409,0.0223 -0.03613,0.0495 -0.03613,0.0819 0,0.0399 0.01569,0.0726 0.04677,0.0981 0.03109,0.0255 0.08066,0.0399 0.148442,0.0427 0.122674,-0.095 0.22322,-0.16032 0.301923,-0.1965 0.0787,-0.0362 0.14816,-0.0542 0.208377,-0.0542 0.02857,0 0.05238,0.008 0.07142,0.0228 0.01905,0.0153 0.02885,0.0333 0.02885,0.0542 0,0.0473 -0.02941,0.0896 -0.08851,0.12656 -0.09523,0.0598 -0.245069,0.0981 -0.449524,0.11537 -0.114833,0.0855 -0.172248,0.17271 -0.172248,0.26185 0,0.0882 0.0717,0.15789 0.215098,0.20913 0.109512,-0.0379 0.205579,-0.0661 0.288763,-0.0848 0.08318,-0.0187 0.153763,-0.0277 0.211738,-0.0277 0.05153,0 0.08851,0.008 0.111471,0.025 0.02296,0.0168 0.03445,0.0381 0.03445,0.0648 0,0.0333 -0.01905,0.0602 -0.05742,0.0811 -0.0689,0.0379 -0.171689,0.0568 -0.308646,0.0568 -0.03949,0 -0.08094,-0.002 -0.124636,-0.006 -0.04369,-0.004 -0.08906,-0.009 -0.136119,-0.0156 -0.134437,0.0493 -0.243106,0.12268 -0.32573,0.21984 -0.08262,0.0971 -0.123795,0.19796 -0.123795,0.3024 0,0.0807 0.02213,0.14648 0.06638,0.19724 0.04425,0.0507 0.09971,0.0865 0.166646,0.10736 0.04061,0.0134 0.103348,0.0199 0.188773,0.0199 0.08767,0 0.174489,-0.003 0.261031,-0.009 0.118194,-0.007 0.195775,-0.01 0.233027,-0.01 0.106149,0 0.194653,0.0333 0.265792,0.0996 0.07114,0.0673 0.10671,0.16031 0.10671,0.27886 0,0.15084 -0.04845,0.27059 -0.14536,0.35925 -0.09691,0.0887 -0.21622,0.13312 -0.358499,0.13312 -0.07562,0 -0.132758,-0.0134 -0.171409,-0.0399 -0.03865,-0.0265 -0.05825,-0.0551 -0.05825,-0.0855 0,-0.0248 0.01092,-0.0459 0.03277,-0.0641 0.02185,-0.0182 0.04817,-0.0269 0.0787,-0.0269 0.02296,0 0.06414,0.007 0.122955,0.0199 0.05882,0.0134 0.101109,0.0199 0.126315,0.0199 0.07226,0 0.133317,-0.0219 0.182891,-0.0656 0.04958,-0.0437 0.07478,-0.10056 0.07478,-0.17077 0,-0.0588 -0.01988,-0.10615 -0.05993,-0.1416 -0.04005,-0.0355 -0.08823,-0.0534 -0.145361,-0.0534 -0.03165,0 -0.08458,0.004 -0.158244,0.0121 -0.07366,0.008 -0.146761,0.0122 -0.219021,0.0122 -0.172809,0 -0.305566,-0.018 -0.397991,-0.0542 -0.09243,-0.0362 -0.169168,-0.0972 -0.230505,-0.18363 -0.06134,-0.0865 -0.09186,-0.18412 -0.09186,-0.29319 0,-0.11757 0.03501,-0.23221 0.105029,-0.3437 0.07002,-0.1115 0.183171,-0.20575 0.339734,-0.2825 -0.143399,-0.0768 -0.215101,-0.1647 -0.215101,-0.26331 0,-0.0826 0.04594,-0.16833 0.1378,-0.25772 -0.07982,-0.0161 -0.140319,-0.0437 -0.181211,-0.0826 -0.04089,-0.0389 -0.06161,-0.0806 -0.06161,-0.12534 0,-0.0483 0.02156,-0.0896 0.0647,-0.12389 0.04313,-0.0343 0.118753,-0.0534 0.227143,-0.059 z"
       id="path3909" />
  </g>
</svg>
