<?xml version="1.0" encoding="UTF-8" standalone="no"?>
<!-- Created with Inkscape (http://www.inkscape.org/) -->

<svg
   xmlns:i="http://ns.adobe.com/AdobeIllustrator/10.0/"
   xmlns:a="http://ns.adobe.com/AdobeSVGViewerExtensions/3.0/"
   xmlns:dc="http://purl.org/dc/elements/1.1/"
   xmlns:cc="http://creativecommons.org/ns#"
   xmlns:rdf="http://www.w3.org/1999/02/22-rdf-syntax-ns#"
   xmlns:svg="http://www.w3.org/2000/svg"
   xmlns="http://www.w3.org/2000/svg"
   xmlns:xlink="http://www.w3.org/1999/xlink"
   xmlns:sodipodi="http://sodipodi.sourceforge.net/DTD/sodipodi-0.dtd"
   xmlns:inkscape="http://www.inkscape.org/namespaces/inkscape"
   width="210mm"
   height="297mm"
   viewBox="0 0 210 297"
   version="1.1"
   id="svg284"
   inkscape:version="0.92.2 5c3e80d, 2017-08-06"
   sodipodi:docname="littrow.svg"
   inkscape:export-filename="/home/marco/Documenti/Innsbruck/Corsi/Advance laboratory 2/Exp 9/report/img/littrow.png"
   inkscape:export-xdpi="221"
   inkscape:export-ydpi="221">
  <defs
     id="defs278">
    <marker
       inkscape:stockid="Arrow2Lend"
       orient="auto"
       refY="0.0"
       refX="0.0"
       id="Arrow2Lend"
       style="overflow:visible;"
       inkscape:isstock="true">
      <path
         id="path1344"
         style="fill-rule:evenodd;stroke-width:0.625;stroke-linejoin:round;stroke:#fa0000;stroke-opacity:1;fill:#fa0000;fill-opacity:1"
         d="M 8.7185878,4.0337352 L -2.2072895,0.016013256 L 8.7185884,-4.0017078 C 6.9730900,-1.6296469 6.9831476,1.6157441 8.7185878,4.0337352 z "
         transform="scale(1.1) rotate(180) translate(1,0)" />
    </marker>
    <marker
       inkscape:stockid="Arrow2Lstart"
       orient="auto"
       refY="0.0"
       refX="0.0"
       id="Arrow2Lstart"
       style="overflow:visible"
       inkscape:isstock="true">
      <path
         id="path1341"
         style="fill-rule:evenodd;stroke-width:0.625;stroke-linejoin:round;stroke:#fa0000;stroke-opacity:1;fill:#fa0000;fill-opacity:1"
         d="M 8.7185878,4.0337352 L -2.2072895,0.016013256 L 8.7185884,-4.0017078 C 6.9730900,-1.6296469 6.9831476,1.6157441 8.7185878,4.0337352 z "
         transform="scale(1.1) translate(1,0)" />
    </marker>
    <marker
       inkscape:stockid="Arrow1Mend"
       orient="auto"
       refY="0.0"
       refX="0.0"
       id="Arrow1Mend"
       style="overflow:visible;"
       inkscape:isstock="true">
      <path
         id="path1332"
         d="M 0.0,0.0 L 5.0,-5.0 L -12.5,0.0 L 5.0,5.0 L 0.0,0.0 z "
         style="fill-rule:evenodd;stroke:#fa0000;stroke-width:1pt;stroke-opacity:1;fill:#fa0000;fill-opacity:1"
         transform="scale(0.4) rotate(180) translate(10,0)" />
    </marker>
    <marker
       inkscape:stockid="Arrow2Mstart"
       orient="auto"
       refY="0.0"
       refX="0.0"
       id="Arrow2Mstart"
       style="overflow:visible"
       inkscape:isstock="true">
      <path
         id="path1347"
         style="fill-rule:evenodd;stroke-width:0.625;stroke-linejoin:round;stroke:#fa0000;stroke-opacity:1;fill:#fa0000;fill-opacity:1"
         d="M 8.7185878,4.0337352 L -2.2072895,0.016013256 L 8.7185884,-4.0017078 C 6.9730900,-1.6296469 6.9831476,1.6157441 8.7185878,4.0337352 z "
         transform="scale(0.6) translate(0,0)" />
    </marker>
    <marker
       inkscape:stockid="Arrow1Lend"
       orient="auto"
       refY="0.0"
       refX="0.0"
       id="marker9736"
       style="overflow:visible;"
       inkscape:isstock="true">
      <path
         id="path9734"
         d="M 0.0,0.0 L 5.0,-5.0 L -12.5,0.0 L 5.0,5.0 L 0.0,0.0 z "
         style="fill-rule:evenodd;stroke:#fa0000;stroke-width:1pt;stroke-opacity:1;fill:#fa0000;fill-opacity:1"
         transform="scale(0.8) rotate(180) translate(12.5,0)" />
    </marker>
    <marker
       inkscape:stockid="Arrow1Lstart"
       orient="auto"
       refY="0.0"
       refX="0.0"
       id="marker9690"
       style="overflow:visible"
       inkscape:isstock="true">
      <path
         id="path9688"
         d="M 0.0,0.0 L 5.0,-5.0 L -12.5,0.0 L 5.0,5.0 L 0.0,0.0 z "
         style="fill-rule:evenodd;stroke:#fa0000;stroke-width:1pt;stroke-opacity:1;fill:#fa0000;fill-opacity:1"
         transform="scale(0.8) translate(12.5,0)" />
    </marker>
    <marker
       inkscape:stockid="Arrow1Lend"
       orient="auto"
       refY="0.0"
       refX="0.0"
       id="marker5698"
       style="overflow:visible;"
       inkscape:isstock="true">
      <path
         id="path5696"
         d="M 0.0,0.0 L 5.0,-5.0 L -12.5,0.0 L 5.0,5.0 L 0.0,0.0 z "
         style="fill-rule:evenodd;stroke:#fa0000;stroke-width:1pt;stroke-opacity:1;fill:#fa0000;fill-opacity:1"
         transform="scale(0.8) rotate(180) translate(12.5,0)" />
    </marker>
    <marker
       inkscape:stockid="Arrow1Lstart"
       orient="auto"
       refY="0.0"
       refX="0.0"
       id="Arrow1Lstart"
       style="overflow:visible"
       inkscape:isstock="true">
      <path
         id="path1323"
         d="M 0.0,0.0 L 5.0,-5.0 L -12.5,0.0 L 5.0,5.0 L 0.0,0.0 z "
         style="fill-rule:evenodd;stroke:#fa0000;stroke-width:1pt;stroke-opacity:1;fill:#fa0000;fill-opacity:1"
         transform="scale(0.8) translate(12.5,0)" />
    </marker>
    <marker
       inkscape:stockid="TriangleOutM"
       orient="auto"
       refY="0.0"
       refX="0.0"
       id="TriangleOutM"
       style="overflow:visible"
       inkscape:isstock="true">
      <path
         id="path1468"
         d="M 5.77,0.0 L -2.88,5.0 L -2.88,-5.0 L 5.77,0.0 z "
         style="fill-rule:evenodd;stroke:#fa0000;stroke-width:1pt;stroke-opacity:1;fill:#fa0000;fill-opacity:1"
         transform="scale(0.4)" />
    </marker>
    <marker
       inkscape:stockid="Arrow1Lend"
       orient="auto"
       refY="0.0"
       refX="0.0"
       id="Arrow1Lend"
       style="overflow:visible;"
       inkscape:isstock="true">
      <path
         id="path1326"
         d="M 0.0,0.0 L 5.0,-5.0 L -12.5,0.0 L 5.0,5.0 L 0.0,0.0 z "
         style="fill-rule:evenodd;stroke:#fa0000;stroke-width:1pt;stroke-opacity:1;fill:#fa0000;fill-opacity:1"
         transform="scale(0.8) rotate(180) translate(12.5,0)" />
    </marker>
    <linearGradient
       inkscape:collect="always"
       xlink:href="#linearGradient5726"
       id="linearGradient7432"
       gradientUnits="userSpaceOnUse"
       gradientTransform="matrix(0.8,0,0,0.8,-34.8284,-61.1108)"
       x1="43.5355"
       y1="118.0735"
       x2="43.5355"
       y2="92.333496" />
    <linearGradient
       y2="13.1309"
       x2="28.721701"
       y1="32.972698"
       x1="28.721701"
       gradientUnits="userSpaceOnUse"
       id="linearGradient5726">
      <stop
         id="stop5690"
         style="stop-color:#FFFFFF"
         offset="0" />
      <stop
         id="stop5692"
         style="stop-color:#FEFCFC"
         offset="0.0051" />
      <stop
         id="stop5694"
         style="stop-color:#E6A4A4"
         offset="0.1497" />
      <stop
         id="stop5696"
         style="stop-color:#D35E5E"
         offset="0.277" />
      <stop
         id="stop5698"
         style="stop-color:#C62B2B"
         offset="0.3823" />
      <stop
         id="stop5700"
         style="stop-color:#BD0C0C"
         offset="0.4615" />
      <stop
         id="stop5702"
         style="stop-color:#BA0000"
         offset="0.5056" />
      <stop
         id="stop5704"
         style="stop-color:#D86E6E"
         offset="0.7077" />
      <stop
         id="stop5706"
         style="stop-color:#F4D6D6"
         offset="0.9099" />
      <stop
         id="stop5708"
         style="stop-color:#FFFFFF"
         offset="1" />
      <a:midPointStop
         style="stop-color:#FFFFFF"
         offset="0" />
      <a:midPointStop
         style="stop-color:#FFFFFF"
         offset="0.4222" />
      <a:midPointStop
         style="stop-color:#BA0000"
         offset="0.5056" />
      <a:midPointStop
         style="stop-color:#BA0000"
         offset="0.4773" />
      <a:midPointStop
         style="stop-color:#FFFFFF"
         offset="1" />
    </linearGradient>
    <radialGradient
       inkscape:collect="always"
       xlink:href="#radialGradient5264-2"
       id="radialGradient5272"
       cx="9.5870008"
       cy="8.2452106"
       fx="9.5870008"
       fy="8.2452106"
       r="6.7529998"
       gradientTransform="matrix(2.7122849,-4.9331678e-8,1.3188837e-7,2.65854,-16.415678,-15.831995)"
       gradientUnits="userSpaceOnUse" />
    <radialGradient
       gradientUnits="userSpaceOnUse"
       fy="7.4608998"
       fx="8.8794003"
       r="17.067101"
       cy="7.4608998"
       cx="8.8794003"
       id="radialGradient5264-2">
      <stop
         id="stop5248-2"
         style="stop-color:#FEDE58"
         offset="0" />
      <stop
         id="stop5250-8"
         style="stop-color:#BA0000"
         offset="0.6854" />
      <a:midPointStop
         style="stop-color:#FEDE58"
         offset="0" />
      <a:midPointStop
         style="stop-color:#FEDE58"
         offset="0.5" />
      <a:midPointStop
         style="stop-color:#BA0000"
         offset="0.6854" />
    </radialGradient>
    <linearGradient
       inkscape:collect="always"
       xlink:href="#linearGradient3665"
       id="linearGradient3672"
       gradientUnits="userSpaceOnUse"
       gradientTransform="matrix(0.8,0,0,0.8,-34.8284,-61.1108)"
       x1="43.5355"
       y1="112.75975"
       x2="43.5355"
       y2="76.388496" />
    <linearGradient
       id="linearGradient3665"
       gradientUnits="userSpaceOnUse"
       x1="339.73239"
       y1="43.0312"
       x2="339.73239"
       y2="14.6846"
       gradientTransform="matrix(0.35,0,0,1,-113.5716,-14.3096)">
      <stop
         offset="0.0056"
         style="stop-color:#89A4B6"
         id="stop3647" />
      <stop
         offset="0.5"
         style="stop-color:#FFFFFF"
         id="stop3649" />
      <stop
         offset="1"
         style="stop-color:#89A4B6"
         id="stop3651" />
      <a:midPointStop
         offset="0.0056"
         style="stop-color:#89A4B6" />
      <a:midPointStop
         offset="0.5"
         style="stop-color:#89A4B6" />
      <a:midPointStop
         offset="0.5"
         style="stop-color:#FFFFFF" />
      <a:midPointStop
         offset="0.5"
         style="stop-color:#FFFFFF" />
      <a:midPointStop
         offset="1"
         style="stop-color:#89A4B6" />
    </linearGradient>
    <marker
       inkscape:stockid="Arrow2Lstart"
       orient="auto"
       refY="0"
       refX="0"
       id="Arrow2Lstart-7"
       style="overflow:visible"
       inkscape:isstock="true">
      <path
         inkscape:connector-curvature="0"
         id="path1341-5"
         style="fill:#fa0000;fill-opacity:1;fill-rule:evenodd;stroke:#fa0000;stroke-width:0.625;stroke-linejoin:round;stroke-opacity:1"
         d="M 8.7185878,4.0337352 -2.2072895,0.01601326 8.7185884,-4.0017078 c -1.7454984,2.3720609 -1.7354408,5.6174519 -6e-7,8.035443 z"
         transform="matrix(1.1,0,0,1.1,1.1,0)" />
    </marker>
    <marker
       inkscape:stockid="Arrow2Lend"
       orient="auto"
       refY="0"
       refX="0"
       id="Arrow2Lend-3"
       style="overflow:visible"
       inkscape:isstock="true">
      <path
         inkscape:connector-curvature="0"
         id="path1344-5"
         style="fill:#fa0000;fill-opacity:1;fill-rule:evenodd;stroke:#fa0000;stroke-width:0.625;stroke-linejoin:round;stroke-opacity:1"
         d="M 8.7185878,4.0337352 -2.2072895,0.01601326 8.7185884,-4.0017078 c -1.7454984,2.3720609 -1.7354408,5.6174519 -6e-7,8.035443 z"
         transform="matrix(-1.1,0,0,-1.1,-1.1,0)" />
    </marker>
  </defs>
  <sodipodi:namedview
     id="base"
     pagecolor="#ffffff"
     bordercolor="#666666"
     borderopacity="1.0"
     inkscape:pageopacity="0.0"
     inkscape:pageshadow="2"
     inkscape:zoom="2.8"
     inkscape:cx="342.69345"
     inkscape:cy="699.83279"
     inkscape:document-units="mm"
     inkscape:current-layer="layer1"
     showgrid="false"
     inkscape:snap-global="true"
     inkscape:snap-bbox="false"
     inkscape:window-width="1366"
     inkscape:window-height="697"
     inkscape:window-x="0"
     inkscape:window-y="0"
     inkscape:window-maximized="1" />
  <metadata
     id="metadata281">
    <rdf:RDF>
      <cc:Work
         rdf:about="">
        <dc:format>image/svg+xml</dc:format>
        <dc:type
           rdf:resource="http://purl.org/dc/dcmitype/StillImage" />
        <dc:title />
      </cc:Work>
    </rdf:RDF>
  </metadata>
  <g
     inkscape:label="Livello 1"
     inkscape:groupmode="layer"
     id="layer1">
    <g
       style="display:inline;opacity:1;enable-background:new"
       i:rgbTrio="#4F008000FFFF"
       i:dimmedPercent="50"
       i:layer="yes"
       id="g7396"
       transform="matrix(-0.26458333,0,0,-0.26458333,47.660245,120.41735)">
      <g
         id="g7398">
        <rect
           id="rect7400"
           height="12.756"
           width="56.693001"
           i:knockout="Off"
           y="0.375"
           x="0.375"
           style="fill:#302b33" />
        <rect
           id="rect7402"
           height="12.756"
           width="56.693001"
           i:knockout="Off"
           y="32.973"
           x="0.375"
           style="fill:#302b33" />
        <linearGradient
           y2="13.1309"
           x2="28.721701"
           y1="32.972698"
           x1="28.721701"
           gradientUnits="userSpaceOnUse"
           id="linearGradient7404">
          <stop
             id="stop7406"
             style="stop-color:#FFFFFF"
             offset="0" />
          <stop
             id="stop7408"
             style="stop-color:#FEFCFC"
             offset="0.0051" />
          <stop
             id="stop7410"
             style="stop-color:#E6A4A4"
             offset="0.1497" />
          <stop
             id="stop7412"
             style="stop-color:#D35E5E"
             offset="0.277" />
          <stop
             id="stop7414"
             style="stop-color:#C62B2B"
             offset="0.3823" />
          <stop
             id="stop7416"
             style="stop-color:#BD0C0C"
             offset="0.4615" />
          <stop
             id="stop7418"
             style="stop-color:#BA0000"
             offset="0.5056" />
          <stop
             id="stop7420"
             style="stop-color:#D86E6E"
             offset="0.7077" />
          <stop
             id="stop7422"
             style="stop-color:#F4D6D6"
             offset="0.9099" />
          <stop
             id="stop7424"
             style="stop-color:#FFFFFF"
             offset="1" />
          <a:midPointStop
             style="stop-color:#FFFFFF"
             offset="0" />
          <a:midPointStop
             style="stop-color:#FFFFFF"
             offset="0.4222" />
          <a:midPointStop
             style="stop-color:#BA0000"
             offset="0.5056" />
          <a:midPointStop
             style="stop-color:#BA0000"
             offset="0.4773" />
          <a:midPointStop
             style="stop-color:#FFFFFF"
             offset="1" />
        </linearGradient>
        <rect
           id="rect7426"
           height="19.841999"
           width="56.693001"
           i:knockout="Off"
           y="13.131"
           x="0.375"
           style="fill:url(#linearGradient7432);fill-opacity:1;stroke:#000000;stroke-width:0.75" />
        <rect
           id="rect7428"
           height="39.686001"
           width="4.2519999"
           i:knockout="Off"
           y="3.2090001"
           x="57.068001"
           style="stroke:#000000;stroke-width:0.75" />
        <rect
           id="rect7430"
           height="45.354"
           width="56.693001"
           i:knockout="Off"
           y="0.375"
           x="0.375"
           style="fill:none;stroke:#000000;stroke-width:0.75" />
      </g>
    </g>
    <text
       xml:space="preserve"
       style="font-style:normal;font-variant:normal;font-weight:normal;font-stretch:normal;font-size:3.29340386px;line-height:0%;font-family:Arial;text-align:start;writing-mode:lr-tb;text-anchor:start;display:inline;fill:#000000;fill-opacity:1;stroke:none;stroke-width:0.2744503;enable-background:new"
       x="35.744663"
       y="102.1137"
       id="text4083"
       transform="scale(0.96404824,1.0372925)"><tspan
         sodipodi:role="line"
         id="tspan4085"
         x="35.744663"
         y="102.1137"
         style="font-style:normal;font-variant:normal;font-weight:normal;font-stretch:normal;font-size:4.39120483px;line-height:125%;font-family:Arial;text-align:start;writing-mode:lr-tb;text-anchor:start;stroke-width:0.2744503">Laser</tspan></text>
    <g
       style="display:inline;opacity:1;enable-background:new"
       i:rgbTrio="#4F008000FFFF"
       i:dimmedPercent="50"
       i:layer="yes"
       id="g5261"
       transform="matrix(-0.26458333,0,0,-0.26458333,59.828885,89.850071)">
      <g
         id="g5245"
         transform="rotate(38.364979,-8.5900759,18.12015)">
        <radialGradient
           gradientUnits="userSpaceOnUse"
           fy="7.4608998"
           fx="8.8794003"
           r="17.067101"
           cy="7.4608998"
           cx="8.8794003"
           id="radialGradient6674">
          <stop
             id="stop6670"
             style="stop-color:#FEDE58"
             offset="0" />
          <stop
             id="stop6672"
             style="stop-color:#BA0000"
             offset="0.6854" />
          <a:midPointStop
             style="stop-color:#FEDE58"
             offset="0" />
          <a:midPointStop
             style="stop-color:#FEDE58"
             offset="0.5" />
          <a:midPointStop
             style="stop-color:#BA0000"
             offset="0.6854" />
        </radialGradient>
        <path
           inkscape:connector-curvature="0"
           id="path5252"
           d="m 6.044,1.792 c -0.986,0 -1.936,0.148 -2.835,0.417 v 19.01 c 0.899,0.268 1.849,0.416 2.835,0.416 5.479,0 9.921,-4.441 9.921,-9.921 0,-5.48 -4.442,-9.922 -9.921,-9.922 z"
           i:knockout="Off"
           style="fill:url(#radialGradient5272);fill-opacity:1;stroke:#000000;stroke-width:0.75" />
        <rect
           id="rect5254"
           height="22.677999"
           width="2.835"
           i:knockout="Off"
           y="0.375"
           x="0.375"
           style="stroke:#000000;stroke-width:0.75" />
      </g>
    </g>
    <text
       xml:space="preserve"
       style="font-style:normal;font-variant:normal;font-weight:normal;font-stretch:normal;font-size:3.29340386px;line-height:0%;font-family:Arial;text-align:start;writing-mode:lr-tb;text-anchor:start;display:inline;fill:#000000;fill-opacity:1;stroke:none;stroke-width:0.2744503;enable-background:new"
       x="48.771576"
       y="81.970573"
       id="text4083-4"
       transform="scale(0.96404824,1.0372925)"><tspan
         sodipodi:role="line"
         id="tspan4085-3"
         x="48.771576"
         y="81.970573"
         style="font-style:normal;font-variant:normal;font-weight:normal;font-stretch:normal;font-size:4.39120483px;line-height:125%;font-family:Arial;text-align:start;writing-mode:lr-tb;text-anchor:start;stroke-width:0.2744503">Pm</tspan><tspan
         sodipodi:role="line"
         x="48.771576"
         y="84.412354"
         style="font-style:normal;font-variant:normal;font-weight:normal;font-stretch:normal;font-size:4.39120483px;line-height:125%;font-family:Arial;text-align:start;writing-mode:lr-tb;text-anchor:start;stroke-width:0.2744503"
         id="tspan498" /><tspan
         sodipodi:role="line"
         x="48.771576"
         y="84.412354"
         style="font-style:normal;font-variant:normal;font-weight:normal;font-stretch:normal;font-size:4.39120483px;line-height:125%;font-family:Arial;text-align:start;writing-mode:lr-tb;text-anchor:start;stroke-width:0.2744503"
         id="tspan496" /><tspan
         sodipodi:role="line"
         x="48.771576"
         y="84.412354"
         style="font-style:normal;font-variant:normal;font-weight:normal;font-stretch:normal;font-size:4.39120483px;line-height:125%;font-family:Arial;text-align:start;writing-mode:lr-tb;text-anchor:start;stroke-width:0.2744503"
         id="tspan8155" /></text>
    <polygon
       style="display:inline;opacity:1;fill:url(#linearGradient3672);fill-opacity:1;stroke:#000000;stroke-width:0.75;enable-background:new"
       i:knockout="Off"
       points="3.918,9.234 0.375,9.234 0.375,11.36 3.918,11.36 3.918,13.486 0.375,13.486 0.375,15.611 3.918,15.611 3.918,17.738 0.375,17.738 0.375,19.863 3.918,19.863 3.918,21.989 0.375,21.989 0.375,24.115 3.918,24.115 3.918,26.241 0.375,26.241 0.375,28.722 10.295,28.722 10.295,0.375 0.375,0.375 0.375,2.855 3.918,2.855 3.918,4.981 0.375,4.981 0.375,7.108 3.918,7.108 "
       id="polygon3653"
       transform="matrix(0.24847169,0.10343038,-0.11099156,0.24025727,97.07315,110.88149)" />
    <path
       style="fill:none;stroke:#ff0000;stroke-width:0.465;stroke-linecap:round;stroke-linejoin:miter;stroke-miterlimit:4;stroke-dasharray:none;stroke-opacity:1"
       d="m 47.640792,113.98719 23.626692,0.0769 23.626693,0.0769 L 59.2002,85.055264"
       id="path516"
       inkscape:connector-curvature="0"
       sodipodi:nodetypes="cccc" />
    <path
       style="fill:none;stroke:#000000;stroke-width:0.26458332;stroke-linecap:butt;stroke-linejoin:miter;stroke-miterlimit:4;stroke-dasharray:0.79374995, 0.26458332;stroke-dashoffset:0;stroke-opacity:0.33073928"
       d="M 94.894177,114.1409 64.681176,104.0904"
       id="path1919"
       inkscape:connector-curvature="0"
       sodipodi:nodetypes="cc" />
    <path
       style="fill:none;stroke:#000000;stroke-width:0.26458332px;stroke-linecap:butt;stroke-linejoin:miter;stroke-opacity:1"
       d="m 89.380396,113.976 c 0,0 -0.32317,-1.96003 1.795388,-3.16555"
       id="path5641"
       inkscape:connector-curvature="0"
       sodipodi:nodetypes="cc" />
    <path
       inkscape:connector-curvature="0"
       style="display:inline;stroke-width:0.10712115;enable-background:new"
       d="m 89.222299,110.63052 h 0.193777 l -0.151756,0.42819 c -0.01026,0.027 -0.02609,0.0694 -0.0478,0.12704 0.02948,0.0965 0.05177,0.15435 0.06652,0.17313 0.02808,0.0345 0.06334,0.0517 0.106147,0.0517 0.03106,0 0.05995,-0.0102 0.08644,-0.031 0.02649,-0.0207 0.04401,-0.053 0.05257,-0.097 h 0.0466 c -0.01095,0.0904 -0.03445,0.15291 -0.07071,0.18728 -0.03625,0.0344 -0.07808,0.0517 -0.125474,0.0517 -0.04441,0 -0.08465,-0.0151 -0.120692,-0.0451 -0.03604,-0.03 -0.06871,-0.0948 -0.09738,-0.19386 -0.03426,0.0546 -0.06771,0.0961 -0.100378,0.12417 -0.04581,0.0389 -0.09559,0.0679 -0.149368,0.087 -0.05377,0.0191 -0.114907,0.0289 -0.183222,0.0289 -0.171871,0 -0.298335,-0.0461 -0.379192,-0.13829 -0.08085,-0.0922 -0.121477,-0.19738 -0.121477,-0.31544 0,-0.13797 0.0474,-0.24991 0.142402,-0.33552 0.09499,-0.0856 0.206125,-0.12848 0.333783,-0.12848 0.08863,0 0.166893,0.0219 0.234605,0.0654 0.06771,0.0435 0.129054,0.12479 0.184218,0.24349 z m -0.141204,0.38868 c -0.04202,-0.12929 -0.096,-0.2194 -0.162112,-0.27063 -0.06612,-0.0512 -0.133434,-0.0766 -0.201944,-0.0766 -0.07626,0 -0.139604,0.0337 -0.190194,0.10118 -0.05058,0.0675 -0.07588,0.17475 -0.07588,0.32218 0,0.0872 0.01095,0.1558 0.03265,0.20559 0.02171,0.0498 0.05456,0.0885 0.09859,0.11579 0.04401,0.0273 0.09042,0.041 0.139412,0.041 0.05995,0 0.114715,-0.0223 0.164501,-0.0668 0.06771,-0.0602 0.132842,-0.18405 0.194974,-0.37164 z"
       id="path3863" />
    <path
       inkscape:connector-curvature="0"
       style="display:inline;stroke-width:0.10712115;enable-background:new"
       d="m 88.453575,112.60176 h 0.193777 l -0.151756,0.42819 c -0.01026,0.027 -0.02609,0.0694 -0.0478,0.12704 0.02948,0.0965 0.05177,0.15435 0.06652,0.17313 0.02808,0.0345 0.06334,0.0517 0.106147,0.0517 0.03106,0 0.05995,-0.0102 0.08644,-0.031 0.02649,-0.0207 0.04401,-0.053 0.05257,-0.097 h 0.0466 c -0.01095,0.0904 -0.03445,0.15291 -0.07071,0.18728 -0.03625,0.0344 -0.07808,0.0517 -0.125474,0.0517 -0.04441,0 -0.08465,-0.0151 -0.120692,-0.0451 -0.03604,-0.03 -0.06871,-0.0948 -0.09738,-0.19386 -0.03426,0.0546 -0.06771,0.0961 -0.100378,0.12417 -0.04581,0.0389 -0.09559,0.0679 -0.149368,0.087 -0.05377,0.0191 -0.114907,0.0289 -0.183222,0.0289 -0.171871,0 -0.298335,-0.0461 -0.379192,-0.13829 -0.08085,-0.0922 -0.121477,-0.19738 -0.121477,-0.31544 0,-0.13797 0.0474,-0.24991 0.142402,-0.33552 0.09499,-0.0856 0.206125,-0.12848 0.333783,-0.12848 0.08863,0 0.166893,0.0219 0.234605,0.0654 0.06771,0.0435 0.129054,0.12479 0.184218,0.24349 z m -0.141204,0.38868 c -0.04202,-0.12929 -0.096,-0.2194 -0.162112,-0.27063 -0.06612,-0.0512 -0.133434,-0.0766 -0.201944,-0.0766 -0.07626,0 -0.139604,0.0337 -0.190194,0.10118 -0.05058,0.0675 -0.07588,0.17475 -0.07588,0.32218 0,0.0872 0.01095,0.1558 0.03265,0.20559 0.02171,0.0498 0.05456,0.0885 0.09859,0.11579 0.04401,0.0273 0.09042,0.041 0.139412,0.041 0.05995,0 0.114715,-0.0223 0.164501,-0.0668 0.06771,-0.0602 0.132842,-0.18405 0.194974,-0.37164 z"
       id="path3863-6" />
    <path
       style="fill:none;stroke:#fa0000;stroke-width:0.16626905;stroke-linecap:butt;stroke-linejoin:miter;stroke-miterlimit:4;stroke-dasharray:none;stroke-opacity:1;marker-start:url(#Arrow2Lstart);marker-end:url(#Arrow2Lend)"
       d="m 65.488672,114.03141 4.649002,0.0323"
       id="path9686"
       inkscape:connector-curvature="0"
       sodipodi:nodetypes="cc" />
    <path
       style="fill:none;stroke:#fa0000;stroke-width:0.16626905;stroke-linecap:butt;stroke-linejoin:miter;stroke-miterlimit:4;stroke-dasharray:none;stroke-opacity:1;marker-start:url(#Arrow2Lstart-7)"
       d="m 75.707609,98.387406 3.55502,2.996014"
       id="path9686-6"
       inkscape:connector-curvature="0"
       sodipodi:nodetypes="cc" />
    <text
       xml:space="preserve"
       style="font-style:normal;font-weight:normal;font-size:3.52777767px;line-height:1.25;font-family:sans-serif;letter-spacing:0px;word-spacing:0px;fill:#000000;fill-opacity:1;stroke:none;stroke-width:0.26458332"
       x="71.849869"
       y="94.24263"
       id="text17336"><tspan
         sodipodi:role="line"
         id="tspan17334"
         x="71.849869"
         y="94.24263"
         style="font-size:2.11666656px;stroke-width:0.26458332">0th</tspan></text>
    <text
       xml:space="preserve"
       style="font-style:normal;font-weight:normal;font-size:3.52777767px;line-height:1.25;font-family:sans-serif;letter-spacing:0px;word-spacing:0px;fill:#000000;fill-opacity:1;stroke:none;stroke-width:0.26458332"
       x="57.177773"
       y="113.0268"
       id="text17340"><tspan
         sodipodi:role="line"
         id="tspan17338"
         x="57.177773"
         y="113.0268"
         style="stroke-width:0.26458332"><tspan
           style="font-size:2.11666656px"
           id="tspan17346">1st</tspan></tspan></text>
    <text
       xml:space="preserve"
       style="font-style:normal;font-weight:normal;font-size:2.11666656px;line-height:1.25;font-family:sans-serif;letter-spacing:0px;word-spacing:0px;fill:#000000;fill-opacity:1;stroke:none;stroke-width:0.26458332"
       x="-69.07135"
       y="138.83995"
       id="text976"
       transform="rotate(-65.917469)"><tspan
         sodipodi:role="line"
         id="tspan974"
         x="-69.07135"
         y="138.83995"
         style="font-size:2.11666656px;stroke-width:0.26458332">grating</tspan></text>
  </g>
</svg>
